<svg xmlns="http://www.w3.org/2000/svg" width="48" height="48" id="office"><g transform="translate(0 -1004.362)"><circle cx="24" cy="1028.362" r="24" fill="#239fdb" fill-rule="evenodd"></circle><path fill="#f05542" fill-rule="evenodd" d="M20.955 1029.368v11.502c0 .371.39.613.722.447l1.738-.87c.34-.17.74-.17 1.08 0l1.733.867a.502.502 0 0 0 .727-.45v-11.496z"></path><path fill="#d73b28" d="M20.955 1029.368v3.025c1.112.527 1.594 1.946 2.842 1.977 1.295.032 1.833-1.478 3.06-1.89.033-.012.066-.013.098-.022v-3.09h-6z"></path><path fill="#f8b84e" d="M30.76 1028.223c-.605.989-.106 2.333-1.012 3.056-.905.722-2.105-.063-3.204.306-1.098.37-1.58 1.72-2.738 1.691-1.158-.028-1.573-1.401-2.651-1.824-1.079-.423-2.316.301-3.185-.465-.869-.767-.304-2.085-.858-3.102-.554-1.018-1.968-1.258-2.14-2.403-.174-1.146 1.106-1.792 1.336-2.928.229-1.136-.7-2.228-.096-3.217.604-.989 2-.661 2.906-1.384.906-.722.897-2.156 1.995-2.525 1.098-.37 1.957.779 3.115.807 1.159.029 2.074-1.075 3.152-.652 1.079.423.999 1.855 1.867 2.621.87.767 2.28.509 2.834 1.526.554 1.018-.427 2.063-.254 3.209.172 1.145 1.419 1.854 1.19 2.99-.23 1.136-1.654 1.305-2.258 2.294z"></path><path fill="#fcd062" d="M29.287 1027.324c-.474.777-.082 1.833-.794 2.401-.711.568-1.654-.05-2.517.24s-1.242 1.352-2.152 1.33c-.91-.023-1.235-1.102-2.083-1.434-.847-.333-1.82.237-2.502-.365-.683-.603-.239-1.638-.674-2.438-.436-.8-1.547-.988-1.682-1.888-.136-.9.87-1.408 1.05-2.3.18-.893-.55-1.751-.075-2.528.474-.777 1.571-.52 2.283-1.087.712-.568.704-1.695 1.567-1.985.863-.29 1.538.612 2.448.635.91.023 1.629-.845 2.476-.513.848.333.785 1.458 1.468 2.06.682.602 1.79.4 2.226 1.199.436.8-.336 1.62-.2 2.52.136.901 1.115 1.458.935 2.35-.18.893-1.299 1.026-1.774 1.803zM20.955 1037.37h6v1h-6zM20.955 1035.37h6v1h-6z"></path><g style="line-height:125%"><path fill="#f05542" d="M-262.05 1238.33h-1.98l1.757-1.59a2.224 2.224 0 0 0 .734-1.655 2.27 2.27 0 0 0-.142-.79 2.115 2.115 0 0 0-.434-.707 2.24 2.24 0 0 0-2.445-.593c-.26.095-.495.24-.707.435l-.289.26a.51.51 0 0 0-.168.356.519.519 0 0 0 .487.542.496.496 0 0 0 .37-.135l.288-.26a1.232 1.232 0 0 1 1.286-.214c.154.063.293.163.415.297a1.213 1.213 0 0 1 .307.809 1.153 1.153 0 0 1-.39.893l-2.753 2.491a.513.513 0 0 0-.028.725.446.446 0 0 0 .174.126.539.539 0 0 0 .208.042h3.31a.499.499 0 0 0 .364-.148.51.51 0 0 0 .147-.363.524.524 0 0 0-.147-.369.504.504 0 0 0-.364-.152z" font-family="Quicksand" font-size="9.298" font-weight="700" letter-spacing="0" transform="translate(287.955 -211.992)" word-spacing="0" style="-inkscape-font-specification:'Quicksand Bold'"></path></g><path fill="#f05542" d="M23.455 1026.37h2a.499.499 0 1 1 0 1h-2a.499.499 0 1 1 0-1z"></path></g></svg>