<svg xmlns="http://www.w3.org/2000/svg" width="48" height="48" id="office"><g transform="translate(0 -1004.362)"><circle cx="37.045" cy="28.409" r="12.5" fill="#50b748" fill-rule="evenodd" transform="matrix(1.92 0 0 1.92 -47.127 973.817)"></circle><g transform="translate(8 -7.77)"><path fill="#f05542" fill-rule="evenodd" d="m20.787 1036.56 2.977 11.11a.499.499 0 0 1-.581.619l-1.904-.39a1.207 1.207 0 0 0-1.043.28l-1.45 1.285a.502.502 0 0 1-.818-.245l-2.976-11.106z"></path><path fill="#d53d2a" fill-rule="evenodd" d="m16.121 1037.81-1.129.303 1.747 6.518 1.664-6.21-2.282-.61z"></path><path fill="#fcd062" d="m22.859 1044.29-5.796 1.553.26.966 5.795-1.553zM22.341 1042.358l-5.795 1.553.259.966 5.795-1.553z"></path><rect width="3" height="1" x="501.606" y="904.05" fill="#f05542" rx=".5" ry=".5" transform="scale(-1 1) rotate(30)"></rect><path fill="#f05542" fill-rule="evenodd" d="m11.751 1036.56-2.977 11.11a.499.499 0 0 0 .582.619l1.904-.39c.372-.076.759.027 1.043.28l1.45 1.285c.28.248.721.116.818-.245l2.976-11.106z"></path><path fill="#d73b28" d="m11.751 1036.56-.783 2.923c.938.797 1.036 2.292 2.234 2.645 1.242.366 2.152-.954 3.445-1.035h.1l.8-2.984-5.796-1.553z"></path><path fill="#d73b28" d="m20.748 1036.416-5.795 1.553.897 3.345c.246-.099.499-.176.771-.193 1.318-.082 2.408 1.136 3.618.607.836-.364 1.028-1.25 1.378-2.066l-.869-3.246z"></path><path fill="#f8b84e" d="M21.517 1037.992c-.839.799-.705 2.227-1.767 2.69-1.062.464-2.017-.605-3.174-.533-1.156.072-1.971 1.252-3.082.925-1.112-.328-1.157-1.761-2.09-2.449-.932-.688-2.314-.308-2.955-1.273-.64-.966.246-2.092-.026-3.219-.272-1.126-1.576-1.724-1.446-2.875.13-1.151 1.533-1.445 2.049-2.482.515-1.038-.099-2.334.74-3.132.84-.799 2.103-.121 3.165-.585 1.062-.463 1.424-1.85 2.58-1.923 1.157-.072 1.69 1.259 2.801 1.587 1.111.327 2.28-.503 3.213.185.933.688.485 2.05 1.125 3.015.641.966 2.07 1.082 2.343 2.208.272 1.126-.947 1.882-1.077 3.033s.891 2.159.376 3.197c-.516 1.037-1.935.833-2.775 1.631z"></path><path fill="#fcd062" d="M20.329 1036.743c-.66.627-.554 1.75-1.389 2.113-.834.365-1.585-.475-2.494-.419-.908.057-1.549.984-2.422.727-.873-.257-.908-1.383-1.641-1.924-.733-.54-1.819-.242-2.323-1-.503-.759.194-1.644-.02-2.53-.214-.884-1.238-1.354-1.136-2.258.102-.905 1.205-1.135 1.61-1.95.405-.816-.078-1.834.582-2.462.66-.627 1.652-.095 2.486-.459.835-.364 1.12-1.454 2.028-1.51.909-.057 1.327.988 2.2 1.246.873.257 1.792-.395 2.525.145.732.54.38 1.611.884 2.37.503.758 1.626.849 1.84 1.734.214.885-.744 1.479-.846 2.383-.101.905.7 1.696.295 2.512-.405.815-1.52.654-2.18 1.282zM9.68 1044.29l5.795 1.553-.258.965-5.796-1.552zM10.197 1042.358l5.796 1.553-.259.966-5.795-1.553z"></path><g style="line-height:125%"><path style="-inkscape-font-specification:'Quicksand Bold'" fill="#f05542" d="M-228.57 1238.357h-1.98l1.757-1.59a2.224 2.224 0 0 0 .734-1.655 2.27 2.27 0 0 0-.141-.79 2.115 2.115 0 0 0-.435-.707 2.225 2.225 0 0 0-1.655-.735c-.268 0-.532.047-.79.142-.26.095-.495.24-.707.435l-.288.26a.51.51 0 0 0-.169.355.519.519 0 0 0 .487.542.496.496 0 0 0 .37-.135l.288-.26a1.23 1.23 0 0 1 1.287-.213c.154.063.292.162.414.296a1.214 1.214 0 0 1 .307.809 1.153 1.153 0 0 1-.39.893l-2.752 2.492a.513.513 0 0 0-.028.725.446.446 0 0 0 .173.125.539.539 0 0 0 .208.042h3.31a.495.495 0 0 0 .364-.147.51.51 0 0 0 .148-.364.524.524 0 0 0-.148-.368.503.503 0 0 0-.364-.153z" font-family="Quicksand" font-size="9.298" font-weight="700" letter-spacing="0" transform="translate(246.09 -203.977)" word-spacing="0"></path></g><rect width="3" height="1" x="15.09" y="1034.411" fill="#f05542" rx=".5" ry=".5"></rect></g></g></svg>